<?xml version="1.0" standalone="no"?>
<!DOCTYPE svg PUBLIC "-//W3C//DTD SVG 20010904//EN"
 "http://www.w3.org/TR/2001/REC-SVG-20010904/DTD/svg10.dtd">
<svg version="1.0" xmlns="http://www.w3.org/2000/svg"
 width="200.000000pt" height="200.000000pt" viewBox="0 0 200.000000 200.000000"
 preserveAspectRatio="xMidYMid meet">
<metadata>
Created by potrace 1.14, written by Peter Selinger 2001-2017
</metadata>
<g transform="translate(0.000000,200.000000) scale(0.100000,-0.100000)"
fill="#000000" stroke="none">
<path d="M1280 1901 c-12 -33 -27 -58 -33 -56 -64 21 -294 27 -401 10 -86 -13
-87 -13 -107 53 -16 54 -26 38 -28 -46 -1 -37 -4 -87 -6 -111 -2 -24 -7 -99
-10 -165 -4 -67 -9 -143 -10 -171 -2 -27 -7 -106 -10 -175 -4 -69 -9 -138 -10
-155 -2 -16 -3 -55 -4 -86 l-1 -57 -147 -73 c-82 -40 -224 -110 -318 -156 -94
-45 -165 -83 -160 -84 6 0 28 -2 50 -3 174 -13 282 -61 325 -146 11 -22 20
-53 20 -70 0 -16 3 -30 8 -30 4 -1 54 -2 112 -5 116 -4 200 -23 270 -61 92
-50 159 -130 181 -214 12 -49 29 -59 29 -17 0 34 51 126 93 169 75 76 236 131
372 128 94 -2 90 -4 92 41 7 124 138 205 338 208 50 1 47 3 -240 146 -159 80
-293 146 -297 147 -9 3 -13 53 -33 358 -3 47 -7 108 -10 135 -2 28 -6 95 -10
150 -3 55 -8 123 -10 150 -3 28 -7 93 -11 145 -3 52 -7 96 -9 98 -1 1 -12 -24
-25 -57z m-360 -488 c3 -3 -15 -3 -40 0 -25 3 -53 6 -62 6 -13 1 -48 50 -48
68 0 4 142 -66 150 -74z m321 44 c-13 -33 -18 -36 -87 -41 l-59 -5 75 39 c41
21 76 37 78 35 1 -1 -2 -14 -7 -28z m-354 -176 l133 -40 122 40 c68 21 128 39
133 39 6 0 9 -51 8 -136 l-1 -135 -39 -36 c-21 -20 -55 -52 -76 -72 l-37 -36
-122 -1 -121 -1 -74 73 -73 73 0 136 c0 74 3 135 8 135 4 0 67 -18 139 -39z"/>
<path d="M967 1178 c-27 -3 -51 -9 -53 -11 -4 -4 143 2 161 7 25 7 -65 11
-108 4z"/>
</g>
</svg>
