<svg xmlns="http://www.w3.org/2000/svg" viewBox="0 0 100 100" width="100" height="100">
  <!-- Background circle with gradient -->
  <defs>
    <linearGradient id="bgGradient" x1="0%" y1="0%" x2="100%" y2="100%">
      <stop offset="0%" style="stop-color:#667eea;stop-opacity:1" />
      <stop offset="100%" style="stop-color:#764ba2;stop-opacity:1" />
    </linearGradient>
    <linearGradient id="codeGradient" x1="0%" y1="0%" x2="100%" y2="100%">
      <stop offset="0%" style="stop-color:#ffffff;stop-opacity:0.95" />
      <stop offset="100%" style="stop-color:#f8f9ff;stop-opacity:0.9" />
    </linearGradient>
  </defs>
  
  <!-- Background -->
  <circle cx="50" cy="50" r="45" fill="url(#bgGradient)" stroke="#5a67d8" stroke-width="2"/>
  
  <!-- Code brackets -->
  <path d="M25 30 L20 35 L20 50 L20 65 L25 70" stroke="url(#codeGradient)" stroke-width="3.5" fill="none" stroke-linecap="round" stroke-linejoin="round"/>
  <path d="M75 30 L80 35 L80 50 L80 65 L75 70" stroke="url(#codeGradient)" stroke-width="3.5" fill="none" stroke-linecap="round" stroke-linejoin="round"/>
  
  <!-- Algorithm tree/binary structure -->
  <circle cx="50" cy="35" r="4" fill="url(#codeGradient)"/>
  <circle cx="38" cy="50" r="3.5" fill="url(#codeGradient)"/>
  <circle cx="62" cy="50" r="3.5" fill="url(#codeGradient)"/>
  <circle cx="32" cy="65" r="3" fill="url(#codeGradient)"/>
  <circle cx="44" cy="65" r="3" fill="url(#codeGradient)"/>
  <circle cx="56" cy="65" r="3" fill="url(#codeGradient)"/>
  <circle cx="68" cy="65" r="3" fill="url(#codeGradient)"/>
  
  <!-- Connecting lines -->
  <line x1="50" y1="39" x2="38" y2="46" stroke="url(#codeGradient)" stroke-width="2" stroke-linecap="round"/>
  <line x1="50" y1="39" x2="62" y2="46" stroke="url(#codeGradient)" stroke-width="2" stroke-linecap="round"/>
  <line x1="38" y1="54" x2="32" y2="61" stroke="url(#codeGradient)" stroke-width="1.5" stroke-linecap="round"/>
  <line x1="38" y1="54" x2="44" y2="61" stroke="url(#codeGradient)" stroke-width="1.5" stroke-linecap="round"/>
  <line x1="62" y1="54" x2="56" y2="61" stroke="url(#codeGradient)" stroke-width="1.5" stroke-linecap="round"/>
  <line x1="62" y1="54" x2="68" y2="61" stroke="url(#codeGradient)" stroke-width="1.5" stroke-linecap="round"/>
</svg>
